<svg xmlns="http://www.w3.org/2000/svg" width="48" height="48" viewBox="0 0 48 48"><rect width="48" height="48" fill="#fff"/><rect x="21" width="6" height="48" fill="#00247d"/><rect y="21" width="48" height="6" fill="#00247d"/><rect x="23" width="2" height="48" fill="#cf142b"/><rect y="23" width="48" height="2" fill="#cf142b"/><polygon points="0,0 0,8 40,48 48,48 48,40 8,0" fill="#00247d"/><polygon points="48,0 40,0 0,40 0,48 8,48 48,8" fill="#00247d"/><polygon points="48,0 40,0 0,40 0,44 4,44 44,4 48,4" fill="#cf142b"/><polygon points="0,0 0,8 40,48 44,48 44,44 4,4 0,4" fill="#cf142b"/></svg>
