<svg xmlns="http://www.w3.org/2000/svg" width="48" height="48" viewBox="0 0 48 48"><rect width="48" height="48" fill="#fff"/><rect width="48" height="6" y="0" fill="#B22234"/><rect width="48" height="6" y="12" fill="#B22234"/><rect width="48" height="6" y="24" fill="#B22234"/><rect width="48" height="6" y="36" fill="#B22234"/><rect width="20" height="20" fill="#3C3B6E"/><g fill="#fff"><circle cx="3" cy="3" r="1"/><circle cx="7" cy="5" r="1"/><circle cx="11" cy="3" r="1"/><circle cx="15" cy="5" r="1"/><circle cx="19" cy="3" r="1"/><circle cx="5" cy="9" r="1"/><circle cx="9" cy="7" r="1"/><circle cx="13" cy="9" r="1"/><circle cx="17" cy="7" r="1"/><circle cx="3" cy="11" r="1"/><circle cx="7" cy="13" r="1"/><circle cx="11" cy="11" r="1"/><circle cx="15" cy="13" r="1"/><circle cx="19" cy="11" r="1"/></g></svg>
